{
  "accessors": [
    {
      "bufferView": 2,
      "componentType": 5126,
      "count": 53493,
      "max": [
        3.6201150417327881,
        3.8259251117706299,
        3.0531389713287354
      ],
      "min": [
        -4.7470598220825195,
        -1.739577054977417,
        -3.8521490097045898
      ],
      "type": "VEC3"
    },
    {
      "bufferView": 2,
      "byteOffset": 641916,
      "componentType": 5126,
      "count": 53493,
      "max": [
        0.99999862909317017,
        0.99994814395904541,
        0.9999808669090271
      ],
      "min": [
        -0.99988377094268799,
        -0.99999535083770752,
        -0.99996161460876465
      ],
      "type": "VEC3"
    },
    {
      "bufferView": 1,
      "componentType": 5126,
      "count": 53493,
      "max": [
        0.99576401710510254,
        1
      ],
      "min": [
        0,
        5.0999999075429514e-05
      ],
      "type": "VEC2"
    },
    {
      "bufferView": 0,
      "componentType": 5125,
      "count": 290448,
      "max": [
        53492
      ],
      "min": [
        0
      ],
      "type": "SCALAR"
    }
  ],
  "asset": {
    "extras": {
      "author": "Digital Archive of Natural History (DiNArDa) (https://sketchfab.com/disc3d)",
      "license": "CC0-1.0 (http://creativecommons.org/publicdomain/zero/1.0/)",
      "source": "https://sketchfab.com/3d-models/musca-domestica-157900941156422fbd9dcdfc38a3be19",
      "title": "Musca domestica"
    },
    "generator": "Sketchfab-7.80.0",
    "version": "2.0"
  },
  "bufferViews": [
    {
      "buffer": 0,
      "byteLength": 1161792,
      "byteOffset": 0,
      "name": "floatBufferViews",
      "target": 34963
    },
    {
      "buffer": 0,
      "byteLength": 427944,
      "byteOffset": 1161792,
      "byteStride": 8,
      "name": "floatBufferViews",
      "target": 34962
    },
    {
      "buffer": 0,
      "byteLength": 1283832,
      "byteOffset": 1589736,
      "byteStride": 12,
      "name": "floatBufferViews",
      "target": 34962
    }
  ],
  "buffers": [
    {
      "byteLength": 2873568,
      "uri": "scene.bin"
    }
  ],
  "extensionsRequired": [
    "KHR_materials_pbrSpecularGlossiness"
  ],
  "extensionsUsed": [
    "KHR_materials_pbrSpecularGlossiness"
  ],
  "images": [
    {
      "uri": "textures/Musca_domestica_2.1001_diffuse.png"
    }
  ],
  "materials": [
    {
      "doubleSided": true,
      "extensions": {
        "KHR_materials_pbrSpecularGlossiness": {
          "diffuseFactor": [
            0.69683689024390238,
            0.69683689024390238,
            0.69683689024390238,
            1
          ],
          "diffuseTexture": {
            "index": 0,
            "texCoord": 0
          },
          "glossinessFactor": 0.047065548780487854,
          "specularFactor": [
            0.62366615853658536,
            0.62366615853658536,
            0.62366615853658536
          ],
          "specularGlossinessTexture": {
            "index": 1,
            "texCoord": 0
          }
        }
      },
      "name": "Musca_domestica_2.1001"
    }
  ],
  "meshes": [
    {
      "primitives": [
        {
          "attributes": {
            "NORMAL": 1,
            "POSITION": 0,
            "TEXCOORD_0": 2
          },
          "indices": 3,
          "material": 0,
          "mode": 4
        }
      ]
    }
  ],
  "nodes": [
    {
      "children": [
        1
      ],
      "name": "RootNode (gltf orientation matrix)",
      "rotation": [
        -0.70710678118654746,
        -0,
        -0,
        0.70710678118654757
      ]
    },
    {
      "children": [
        2
      ],
      "matrix": [
        0.99754166603088379,
        0.010474151000380516,
        0.069288231432437897,
        0,
        0.070075437426567078,
        -0.14910221099853516,
        -0.9863356351852417,
        0,
        0,
        0.98876631259918213,
        -0.14946965873241425,
        0,
        -0.074486039578914642,
        1.5996347665786743,
        0.60873943567276001,
        1
      ],
      "name": "RootNode (model correction matrix)"
    },
    {
      "children": [
        3
      ],
      "name": "Musca_domestica_2.obj.cleaner.materialmerger.gles"
    },
    {
      "mesh": 0,
      "name": ""
    }
  ],
  "samplers": [
    {
      "magFilter": 9728,
      "minFilter": 9986,
      "wrapS": 10497,
      "wrapT": 10497
    },
    {
      "magFilter": 9729,
      "minFilter": 9987,
      "wrapS": 10497,
      "wrapT": 10497
    }
  ],
  "scene": 0,
  "scenes": [
    {
      "name": "OSG_Scene",
      "nodes": [
        0
      ]
    }
  ],
  "textures": [
    {
      "sampler": 0,
      "source": 0
    },
    {
      "sampler": 1,
      "source": 0
    }
  ]
}

